<svg id="图层_1" data-name="图层 1" xmlns="http://www.w3.org/2000/svg" viewBox="0 0 266 266"><defs><style>.cls-1{opacity:0.2;}.cls-2{fill:#9e9e9f;}.cls-2,.cls-3,.cls-4{stroke:#000;stroke-miterlimit:10;}.cls-3{fill:#c7161d;}.cls-4{fill:#fff;}</style></defs><title>图标</title><g class="cls-1"><path class="cls-2" d="M242.88,140l-20.07-16.51a32.68,32.68,0,0,0-20.8-7.52H159.38a12.72,12.72,0,0,1,4.87,4.6l16,26.24a25.39,25.39,0,0,1,0,26.39l-16,26.24a12.71,12.71,0,0,1-10.85,6.1H112.26a12.68,12.68,0,0,1-10.84-6.1l-16-26.24a25.39,25.39,0,0,1,0-26.39l15-24.72a15.94,15.94,0,0,1,6.83-6.12H64a32.73,32.73,0,0,0-20.81,7.52L23.14,140a7.06,7.06,0,0,0-1.84,8.44l2.29,4.82a6.73,6.73,0,0,0,4.54,3.7l42.61,9.86a13.35,13.35,0,0,1,7.87,5.33L100,202.34A13.25,13.25,0,0,0,110.76,208h44.49A13.22,13.22,0,0,0,166,202.34l21.36-30.23a13.35,13.35,0,0,1,7.87-5.33l42.62-9.86a6.73,6.73,0,0,0,4.54-3.7l2.29-4.82a7.08,7.08,0,0,0-1.84-8.44Z"/><path class="cls-3" d="M60.88,228.6l143.83.37a9.75,9.75,0,0,0,6.95-2.88A111.29,111.29,0,0,0,243.9,148c0-60.33-49-110.09-109.31-110.93A110.89,110.89,0,0,0,54,225.69a9.75,9.75,0,0,0,6.92,2.91Zm147.44.71h0Zm.87,21.78h-.06L56.35,250.7a20.82,20.82,0,0,1-14.17-5.61A133,133,0,0,1,134.9,14.92,132.67,132.67,0,0,1,227.69,54.6a132.83,132.83,0,0,1-4.36,191h0a20.72,20.72,0,0,1-14.14,5.54Z"/><path class="cls-3" d="M89.36,146.77a25.39,25.39,0,0,0,0,26.39l14,23a12.72,12.72,0,0,0,10.85,6.09h37.23a12.69,12.69,0,0,0,10.84-6.09l14-23a25.39,25.39,0,0,0,0-26.39l-14-23a12.69,12.69,0,0,0-10.84-6.09H116a15.84,15.84,0,0,0-13.55,7.62l-13.09,21.5Z"/><path class="cls-4" d="M128.93,142.56h3.95v4.29h-2.35a4.25,4.25,0,0,0-4.25,4.26v6.1a4.7,4.7,0,0,0,4.69,4.7h1.91v4.69h-3.95a7.26,7.26,0,0,1-7.26-7.25v-9.53A7.26,7.26,0,0,1,128.93,142.56Z"/><path class="cls-4" d="M136.83,170.91h-4v-4.29h2.35a4.25,4.25,0,0,0,4.25-4.26v-6.1a4.7,4.7,0,0,0-4.7-4.7h-1.9v-4.69h4a7.26,7.26,0,0,1,7.26,7.25v9.53A7.26,7.26,0,0,1,136.83,170.91Z"/><rect class="cls-4" x="128.59" y="168.76" width="4.29" height="4.29" transform="translate(301.64 40.18) rotate(90)"/></g></svg>